<?xml version="1.0" encoding="UTF-8"?>
<svg version="1.1" xmlns="http://www.w3.org/2000/svg" width="200" height="200">
<path d="M0 0 C6.06719901 3.66641488 10.05887145 8.98021797 12.5625 15.5 C14.09679153 15.51213028 14.09679153 15.51213028 15.66207886 15.52450562 C25.28592667 15.60187839 34.90963155 15.6895949 44.53329277 15.78752708 C49.48131361 15.83754421 54.42931254 15.8838736 59.37744141 15.921875 C64.14967966 15.9586596 68.9217369 16.00500057 73.69382095 16.05806351 C75.51750651 16.07664387 77.34123093 16.09173826 79.16497421 16.10334396 C81.71287456 16.1201444 84.26035702 16.14916358 86.80810547 16.18115234 C87.56767548 16.18331253 88.32724548 16.18547272 89.10983276 16.18769836 C94.33439568 16.27189568 94.33439568 16.27189568 96.5625 18.5 C96.828125 20.375 96.828125 20.375 96.8125 22.5 C96.82023437 23.551875 96.82023437 23.551875 96.828125 24.625 C96.5625 26.5 96.5625 26.5 94.5625 28.5 C91.94443514 28.71739976 89.42892154 28.81139416 86.80810547 28.81884766 C86.00802063 28.82889328 85.20793579 28.8389389 84.38360596 28.84928894 C81.73230729 28.88024271 79.08111014 28.89718972 76.4296875 28.9140625 C74.59407673 28.93276436 72.75847464 28.95233703 70.92288208 28.9727478 C66.08633534 29.02417882 61.24976068 29.06374567 56.41308594 29.10089111 C51.47974686 29.14086217 46.54652496 29.19198589 41.61328125 29.2421875 C31.92976969 29.33907658 22.24619212 29.42343965 12.5625 29.5 C12.29654526 30.05148712 12.03059052 30.60297424 11.75657654 31.1711731 C11.40305618 31.89344086 11.04953583 32.61570862 10.68530273 33.35986328 C10.33684799 34.0763504 9.98839325 34.79283752 9.62937927 35.53103638 C8.30147938 37.98172283 6.766853 39.6021395 4.625 41.375 C3.97660156 41.92929688 3.32820313 42.48359375 2.66015625 43.0546875 C-3.84107557 47.53412097 -10.80890917 47.17463728 -18.4375 46.5 C-25.09709333 44.81914417 -29.62297447 40.03621678 -33.4375 34.5 C-34.12470314 32.84169542 -34.79400404 31.17574914 -35.4375 29.5 C-36.4569873 29.48018066 -37.47647461 29.46036133 -38.52685547 29.43994141 C-42.30282648 29.36397192 -46.07840773 29.27524191 -49.85400391 29.18261719 C-51.4893424 29.14429148 -53.12476624 29.10944493 -54.76025391 29.078125 C-57.1087091 29.03255158 -59.45657495 28.97454633 -61.8046875 28.9140625 C-62.53807343 28.90251129 -63.27145935 28.89096008 -64.02706909 28.87905884 C-69.20975659 28.72774341 -69.20975659 28.72774341 -71.4375 26.5 C-71.703125 24.625 -71.703125 24.625 -71.6875 22.5 C-71.69265625 21.79875 -71.6978125 21.0975 -71.703125 20.375 C-71.4375 18.5 -71.4375 18.5 -69.4375 16.5 C-66.86170615 16.25470419 -64.38520993 16.12658207 -61.8046875 16.0859375 C-61.05285187 16.06657135 -60.30101624 16.0472052 -59.52639771 16.0272522 C-57.12188101 15.96740853 -54.71731656 15.92105274 -52.3125 15.875 C-50.68357272 15.83682454 -49.05466572 15.79777307 -47.42578125 15.7578125 C-43.42985194 15.66170334 -39.43382813 15.57769059 -35.4375 15.5 C-35.19443115 14.96745605 -34.9513623 14.43491211 -34.70092773 13.88623047 C-32.75761584 9.7906785 -31.05099213 6.56423705 -27.5 3.625 C-26.85160156 3.07070312 -26.20320313 2.51640625 -25.53515625 1.9453125 C-18.47077988 -2.92213491 -7.84396301 -3.47595223 0 0 Z M-21.75 16.1875 C-22.99802677 20.38540822 -22.99802677 24.61459178 -21.75 28.8125 C-18.86032901 32.52779128 -16.11592074 33.41385134 -11.5 34 C-6.77302137 33.838853 -4.67139894 31.81277453 -1.4375 28.5 C0.15939041 25.30621918 -0.06401043 21.97478685 -0.4375 18.5 C-1.67282458 15.65875347 -2.6930439 14.07902141 -5.125 12.1875 C-11.48076622 10.29794788 -17.49616404 10.71828234 -21.75 16.1875 Z " fill="#000000" transform="translate(87.4375,137.5)"/>
<path d="M0 0 C6.06719901 3.66641488 10.05887145 8.98021797 12.5625 15.5 C13.5819873 15.51981934 14.60147461 15.53963867 15.65185547 15.56005859 C19.42782648 15.63602808 23.20340773 15.72475809 26.97900391 15.81738281 C28.6143424 15.85570852 30.24976624 15.89055507 31.88525391 15.921875 C34.2337091 15.96744842 36.58157495 16.02545367 38.9296875 16.0859375 C40.02976639 16.10326431 40.02976639 16.10326431 41.15206909 16.12094116 C46.33475659 16.27225659 46.33475659 16.27225659 48.5625 18.5 C48.828125 20.375 48.828125 20.375 48.8125 22.5 C48.82023437 23.551875 48.82023437 23.551875 48.828125 24.625 C48.5625 26.5 48.5625 26.5 46.5625 28.5 C43.98670615 28.74529581 41.51020993 28.87341793 38.9296875 28.9140625 C38.17785187 28.93342865 37.42601624 28.9527948 36.65139771 28.9727478 C34.24688101 29.03259147 31.84231656 29.07894726 29.4375 29.125 C27.80857272 29.16317546 26.17966572 29.20222693 24.55078125 29.2421875 C20.55485194 29.33829666 16.55882813 29.42230941 12.5625 29.5 C12.31943115 30.03254395 12.0763623 30.56508789 11.82592773 31.11376953 C9.88261584 35.2093215 8.17599213 38.43576295 4.625 41.375 C3.97660156 41.92929688 3.32820313 42.48359375 2.66015625 43.0546875 C-3.84107557 47.53412097 -10.80890917 47.17463728 -18.4375 46.5 C-25.09709333 44.81914417 -29.62297447 40.03621678 -33.4375 34.5 C-34.12470314 32.84169542 -34.79400404 31.17574914 -35.4375 29.5 C-36.97179153 29.48786972 -36.97179153 29.48786972 -38.53707886 29.47549438 C-48.16092667 29.39812161 -57.78463155 29.3104051 -67.40829277 29.21247292 C-72.35631361 29.16245579 -77.30431254 29.1161264 -82.25244141 29.078125 C-87.02467966 29.0413404 -91.7967369 28.99499943 -96.56882095 28.94193649 C-98.39250651 28.92335613 -100.21623093 28.90826174 -102.03997421 28.89665604 C-104.58787456 28.8798556 -107.13535702 28.85083642 -109.68310547 28.81884766 C-110.44267548 28.81668747 -111.20224548 28.81452728 -111.98483276 28.81230164 C-117.20939568 28.72810432 -117.20939568 28.72810432 -119.4375 26.5 C-119.703125 24.625 -119.703125 24.625 -119.6875 22.5 C-119.69265625 21.79875 -119.6978125 21.0975 -119.703125 20.375 C-119.4375 18.5 -119.4375 18.5 -117.4375 16.5 C-114.81943514 16.28260024 -112.30392154 16.18860584 -109.68310547 16.18115234 C-108.88302063 16.17110672 -108.08293579 16.1610611 -107.25860596 16.15071106 C-104.60730729 16.11975729 -101.95611014 16.10281028 -99.3046875 16.0859375 C-97.46907673 16.06723564 -95.63347464 16.04766297 -93.79788208 16.0272522 C-88.96133534 15.97582118 -84.12476068 15.93625433 -79.28808594 15.89910889 C-74.35474686 15.85913783 -69.42152496 15.80801411 -64.48828125 15.7578125 C-54.80476969 15.66092342 -45.12119212 15.57656035 -35.4375 15.5 C-35.17154526 14.94851288 -34.90559052 14.39702576 -34.63157654 13.8288269 C-34.27805618 13.10655914 -33.92453583 12.38429138 -33.56030273 11.64013672 C-33.21184799 10.9236496 -32.86339325 10.20716248 -32.50437927 9.46896362 C-31.17647938 7.01827717 -29.641853 5.3978605 -27.5 3.625 C-26.85160156 3.07070312 -26.20320313 2.51640625 -25.53515625 1.9453125 C-18.47077988 -2.92213491 -7.84396301 -3.47595223 0 0 Z M-21.75 16.1875 C-22.99802677 20.38540822 -22.99802677 24.61459178 -21.75 28.8125 C-18.86032901 32.52779128 -16.11592074 33.41385134 -11.5 34 C-6.77302137 33.838853 -4.67139894 31.81277453 -1.4375 28.5 C0.15939041 25.30621918 -0.06401043 21.97478685 -0.4375 18.5 C-1.67282458 15.65875347 -2.6930439 14.07902141 -5.125 12.1875 C-11.48076622 10.29794788 -17.49616404 10.71828234 -21.75 16.1875 Z " fill="#000000" transform="translate(135.4375,77.5)"/>
<path d="M0 0 C6.06719901 3.66641488 10.05887145 8.98021797 12.5625 15.5 C14.09679153 15.51213028 14.09679153 15.51213028 15.66207886 15.52450562 C25.28592667 15.60187839 34.90963155 15.6895949 44.53329277 15.78752708 C49.48131361 15.83754421 54.42931254 15.8838736 59.37744141 15.921875 C64.14967966 15.9586596 68.9217369 16.00500057 73.69382095 16.05806351 C75.51750651 16.07664387 77.34123093 16.09173826 79.16497421 16.10334396 C81.71287456 16.1201444 84.26035702 16.14916358 86.80810547 16.18115234 C87.56767548 16.18331253 88.32724548 16.18547272 89.10983276 16.18769836 C94.33439568 16.27189568 94.33439568 16.27189568 96.5625 18.5 C96.828125 20.375 96.828125 20.375 96.8125 22.5 C96.82023437 23.551875 96.82023437 23.551875 96.828125 24.625 C96.5625 26.5 96.5625 26.5 94.5625 28.5 C91.94443514 28.71739976 89.42892154 28.81139416 86.80810547 28.81884766 C86.00802063 28.82889328 85.20793579 28.8389389 84.38360596 28.84928894 C81.73230729 28.88024271 79.08111014 28.89718972 76.4296875 28.9140625 C74.59407673 28.93276436 72.75847464 28.95233703 70.92288208 28.9727478 C66.08633534 29.02417882 61.24976068 29.06374567 56.41308594 29.10089111 C51.47974686 29.14086217 46.54652496 29.19198589 41.61328125 29.2421875 C31.92976969 29.33907658 22.24619212 29.42343965 12.5625 29.5 C12.29654526 30.05148712 12.03059052 30.60297424 11.75657654 31.1711731 C11.40305618 31.89344086 11.04953583 32.61570862 10.68530273 33.35986328 C10.33684799 34.0763504 9.98839325 34.79283752 9.62937927 35.53103638 C8.30147938 37.98172283 6.766853 39.6021395 4.625 41.375 C3.97660156 41.92929687 3.32820313 42.48359375 2.66015625 43.0546875 C-3.84107557 47.53412097 -10.80890917 47.17463728 -18.4375 46.5 C-25.09709333 44.81914417 -29.62297447 40.03621678 -33.4375 34.5 C-34.12470314 32.84169542 -34.79400404 31.17574914 -35.4375 29.5 C-36.4569873 29.48018066 -37.47647461 29.46036133 -38.52685547 29.43994141 C-42.30282648 29.36397192 -46.07840773 29.27524191 -49.85400391 29.18261719 C-51.4893424 29.14429148 -53.12476624 29.10944493 -54.76025391 29.078125 C-57.1087091 29.03255158 -59.45657495 28.97454633 -61.8046875 28.9140625 C-62.53807343 28.90251129 -63.27145935 28.89096008 -64.02706909 28.87905884 C-69.20975659 28.72774341 -69.20975659 28.72774341 -71.4375 26.5 C-71.703125 24.625 -71.703125 24.625 -71.6875 22.5 C-71.69265625 21.79875 -71.6978125 21.0975 -71.703125 20.375 C-71.4375 18.5 -71.4375 18.5 -69.4375 16.5 C-66.86170615 16.25470419 -64.38520993 16.12658207 -61.8046875 16.0859375 C-61.05285187 16.06657135 -60.30101624 16.0472052 -59.52639771 16.0272522 C-57.12188101 15.96740853 -54.71731656 15.92105274 -52.3125 15.875 C-50.68357272 15.83682454 -49.05466572 15.79777307 -47.42578125 15.7578125 C-43.42985194 15.66170334 -39.43382813 15.57769059 -35.4375 15.5 C-35.19443115 14.96745605 -34.9513623 14.43491211 -34.70092773 13.88623047 C-32.75761584 9.7906785 -31.05099213 6.56423705 -27.5 3.625 C-26.85160156 3.07070313 -26.20320313 2.51640625 -25.53515625 1.9453125 C-18.47077988 -2.92213491 -7.84396301 -3.47595223 0 0 Z M-21.75 16.1875 C-22.99802677 20.38540822 -22.99802677 24.61459178 -21.75 28.8125 C-18.86032901 32.52779128 -16.11592074 33.41385134 -11.5 34 C-6.77302137 33.838853 -4.67139894 31.81277453 -1.4375 28.5 C0.15939041 25.30621918 -0.06401043 21.97478685 -0.4375 18.5 C-1.67282458 15.65875347 -2.6930439 14.07902141 -5.125 12.1875 C-11.48076622 10.29794788 -17.49616404 10.71828234 -21.75 16.1875 Z " fill="#000000" transform="translate(87.4375,17.5)"/>
</svg>
