<?xml version="1.0" encoding="UTF-8"?>
<svg version="1.1" xmlns="http://www.w3.org/2000/svg" width="512" height="512">
<path d="M0 0 C1.0091748 0.58120605 2.01834961 1.16241211 3.05810547 1.76123047 C4.41959717 2.55811279 4.41959717 2.55811279 5.80859375 3.37109375 C6.99473267 4.06416626 6.99473267 4.06416626 8.20483398 4.77124023 C10 6 10 6 11 8 C11.039992 9.99960012 11.04346799 12.00047242 11 14 C11.69480469 14.25394531 12.38960938 14.50789063 13.10546875 14.76953125 C17.49037025 16.6335582 21.47304613 19.1822075 25.55078125 21.63671875 C31.94497314 24.16398146 38.81084217 21.67846443 45.22924805 19.89868164 C46.00932724 19.68716965 46.78940643 19.47565765 47.59312439 19.25773621 C49.27424915 18.80123012 50.95471008 18.34227359 52.63455772 17.88109016 C55.30472204 17.14835548 57.97674925 16.42280793 60.64936829 15.69908142 C67.28893244 13.8997657 73.92566099 12.09009743 80.56158447 10.27740479 C86.17238683 8.7447719 91.7846672 7.21780907 97.39917946 5.69882011 C100.01104785 4.98980457 102.62058366 4.27263058 105.23014832 3.55519104 C129.20332918 -2.97112446 152.25937991 -4.69697722 175 7 C178.597578 9.07218449 182.11799964 11.27029849 185.64868164 13.45385742 C191.49750891 16.95941096 197.02110815 18.70601794 203.6328125 20.22265625 C215.87788102 23.04953402 226.69387968 29.63189822 234 40 C238.13253227 47.00396315 238.32783703 54.75188222 236.34375 62.59375 C235.40408471 64.89430986 234.32567683 66.89870329 233 69 C232.30583984 70.10408203 232.30583984 70.10408203 231.59765625 71.23046875 C215.80428875 93.66554581 184.72012544 98.65630728 159.9765625 105.21875 C157.77801998 105.80464705 155.57956588 106.39087598 153.38119507 106.97741699 C147.63184455 108.51057713 141.88146342 110.03983319 136.13079834 111.5680542 C126.93784804 114.01181468 117.7465668 116.46184661 108.55515671 118.91139221 C104.37288581 120.02525503 100.189927 121.13652323 96.00694752 122.24772167 C93.13671755 123.0130236 90.26878841 123.78651848 87.4009552 124.56074524 C83.85026807 125.51679479 80.29250634 126.42798654 76.72148132 127.30485535 C75.89578077 127.5149826 75.07008022 127.72510986 74.21935844 127.94160461 C72.69559333 128.32925395 71.16798647 128.70226649 69.63614082 129.05664062 C64.60681762 130.36387745 62.22041812 132.3160209 59.19140625 136.48828125 C57.92494082 138.73187732 56.71735205 141.00946401 55.5625 143.3125 C54.88551747 144.54845818 54.20223266 145.78098203 53.51318359 147.01025391 C52.05872182 149.61943534 50.63442711 152.24199359 49.22998047 154.87841797 C45.78706313 161.2989832 42.05976518 167.55392303 38.34005737 173.81674194 C37.16532007 175.80669943 36.00967777 177.80663678 34.85766602 179.80981445 C16.38693267 211.60523764 -8.83579205 226.48713046 -42.22045898 239.77612305 C-45.46427868 241.07320782 -48.69562895 242.39864867 -51.92773438 243.72460938 C-54.0123169 244.55905237 -56.09758016 245.39179722 -58.18359375 246.22265625 C-59.13689072 246.61832291 -60.09018768 247.01398956 -61.07237244 247.42164612 C-66.92836053 249.70719391 -71.83754695 250.81115736 -78 249 C-81.70849984 246.45040636 -82.76823221 244.69530338 -84.1875 240.4375 C-84.82511123 231.14334041 -76.13999855 220.59540642 -71.5625 212.875 C-70.32878659 210.77772039 -69.09573744 208.68004991 -67.86328125 206.58203125 C-67.22986816 205.50518066 -66.59645508 204.42833008 -65.94384766 203.31884766 C-62.6825788 197.75068779 -59.46775125 192.15588227 -56.25 186.5625 C-50.55617757 176.67477737 -44.81192792 166.8187394 -39 157 C-39.92220337 157.19577637 -39.92220337 157.19577637 -40.86303711 157.39550781 C-66.81310761 162.82664142 -92.37003644 166.35352672 -118.875 166.4375 C-119.69446106 166.4436734 -120.51392212 166.4498468 -121.35821533 166.45620728 C-137.32590795 166.53395831 -152.95830137 164.81479152 -168.1875 159.8125 C-169.05568359 159.53986328 -169.92386719 159.26722656 -170.81835938 158.98632812 C-172.88272533 158.33622393 -174.94203332 157.6700861 -177 157 C-177.36544922 157.99580078 -177.36544922 157.99580078 -177.73828125 159.01171875 C-183.24404766 172.05169183 -190.44641008 185.31033706 -204 191 C-208.29282329 192.49315593 -212.61599196 193.80276086 -217 195 C-217.69738281 195.19335938 -218.39476562 195.38671875 -219.11328125 195.5859375 C-223.36686644 196.51943653 -227.9650182 197.13148366 -231.8828125 194.953125 C-234.03944894 193.1819743 -235.7449495 191.510101 -237 189 C-237.5688455 182.72638849 -235.84518013 177.90460905 -233.640625 172.078125 C-233.29497498 171.13749207 -232.94932495 170.19685913 -232.59320068 169.22772217 C-231.48934761 166.23112389 -230.37002311 163.24058712 -229.25 160.25 C-228.51197891 158.25559358 -227.77498957 156.26080505 -227.0390625 154.265625 C-225.6733853 150.5669191 -224.3014795 146.87065466 -222.92285156 143.17675781 C-220.91745994 137.79577487 -218.95509682 132.39942944 -217 127 C-217.75095947 126.1802771 -217.75095947 126.1802771 -218.51708984 125.34399414 C-223.12231633 120.29352479 -227.38680753 115.0384605 -231.5793457 109.64794922 C-235.16055379 105.04920681 -238.8127939 100.51409026 -242.5 96 C-247.95576909 89.31220533 -253.31523685 82.55581344 -258.62646484 75.75292969 C-260.07394757 73.90562682 -261.53010803 72.0654364 -262.98828125 70.2265625 C-263.48183105 69.60281738 -263.97538086 68.97907227 -264.48388672 68.33642578 C-265.42001531 67.1537655 -266.35771919 65.97234955 -267.29736328 64.79248047 C-275.57102748 54.31834041 -275.57102748 54.31834041 -275.5625 48.9375 C-275.58441406 48.12152344 -275.60632813 47.30554688 -275.62890625 46.46484375 C-274.70907272 42.85978192 -272.79132961 41.41148102 -270 39 C-266.88134766 37.72973633 -266.88134766 37.72973633 -263.4140625 36.83203125 C-262.15335937 36.49623047 -260.89265625 36.16042969 -259.59375 35.81445312 C-258.2709528 35.47999588 -256.94803505 35.14601509 -255.625 34.8125 C-254.30947978 34.46838351 -252.99437021 34.12269306 -251.6796875 33.77539062 C-249.2476729 33.13636638 -246.81377563 32.5044325 -244.37744141 31.88208008 C-242.00449912 31.26234316 -239.64193858 30.60213079 -237.28833008 29.91259766 C-233.77560954 28.93772577 -230.70345755 28.63212461 -227.0625 28.5625 C-225.34740234 28.50255859 -225.34740234 28.50255859 -223.59765625 28.44140625 C-215.55454063 29.69022876 -209.95944989 35.57904597 -204.3125 41.0625 C-202.90668116 42.40409777 -201.50042543 43.74523789 -200.09375 45.0859375 C-199.4028125 45.74819336 -198.711875 46.41044922 -198 47.09277344 C-195.13503224 49.82484475 -192.22775977 52.50931516 -189.3125 55.1875 C-188.26950759 56.14841182 -187.22653877 57.10934925 -186.18359375 58.0703125 C-185.12244448 59.04692786 -184.06124483 60.02348848 -183 61 C-180.62423557 63.18667164 -178.24940327 65.37435052 -175.875 67.5625 C-175.33012939 68.06354248 -174.78525879 68.56458496 -174.22387695 69.08081055 C-170.0496121 72.92773384 -170.0496121 72.92773384 -168.79920959 74.74909973 C-166.90428333 76.36230239 -166.90428333 76.36230239 -163.67478943 75.59965515 C-162.28950648 75.25486166 -160.90907101 74.89024413 -159.53295898 74.51049805 C-158.78209487 74.31804095 -158.03123075 74.12558386 -157.25761318 73.92729473 C-154.83371251 73.30152149 -152.41714631 72.65132346 -150 72 C-148.44131143 71.59306236 -146.88224124 71.18758345 -145.32278442 70.78359985 C-140.36569991 69.49238303 -135.41901008 68.16366208 -130.47265625 66.83203125 C-128.6633288 66.34673245 -126.85395595 65.86160291 -125.04454041 65.37663269 C-121.29364712 64.37067827 -117.54324634 63.36291465 -113.79321289 62.35375977 C-108.98232129 61.05925127 -104.17027391 59.76909869 -99.35787296 58.48021412 C-95.64038938 57.48413203 -91.92346916 56.48596145 -88.20672417 55.4871273 C-86.43062143 55.01005752 -84.65435286 54.53360467 -82.87791634 54.05777931 C-80.41291213 53.39715097 -77.94866955 52.73375573 -75.48461914 52.06958008 C-74.7517569 51.87374329 -74.01889465 51.67790649 -73.26382446 51.47613525 C-69.54274971 50.48309459 -69.54274971 50.48309459 -66 49 C-67.00244751 48.4423999 -67.00244751 48.4423999 -68.02514648 47.87353516 C-90.79959168 35.19393069 -90.79959168 35.19393069 -101.38549805 28.90527344 C-106.82487194 25.6775849 -112.30097562 22.51671306 -117.78540039 19.36621094 C-123.19710956 16.25593682 -128.59997888 13.13051326 -134 10 C-134.79212891 9.54222168 -135.58425781 9.08444336 -136.40039062 8.61279297 C-138.27421748 7.52441041 -140.13909959 6.42278973 -142 5.3125 C-142.94875 4.75175781 -143.8975 4.19101563 -144.875 3.61328125 C-147.84379223 1.35940038 -148.77512715 -0.5383265 -149.3359375 -4.18359375 C-149.40383331 -8.10118212 -149.30607899 -10.44670337 -147.375 -13.9375 C-141.86827423 -18.71965659 -133.98652169 -18.91639763 -127.015625 -19.9453125 C-125.84602234 -20.12005096 -124.67641968 -20.29478943 -123.47137451 -20.474823 C-120.9938891 -20.84247658 -118.51594934 -21.2070797 -116.03759766 -21.56884766 C-112.30288924 -22.117234 -108.57148749 -22.68509127 -104.83984375 -23.25390625 C-63.66667838 -29.38550886 -35.3961697 -20.51727245 0 0 Z " fill="#F2F2F2" transform="translate(275,144)"/>
<path d="M0 0 C1.0091748 0.58120605 2.01834961 1.16241211 3.05810547 1.76123047 C4.41959717 2.55811279 4.41959717 2.55811279 5.80859375 3.37109375 C6.99473267 4.06416626 6.99473267 4.06416626 8.20483398 4.77124023 C10 6 10 6 11 8 C11.039992 9.99960012 11.04346799 12.00047242 11 14 C11.69480469 14.25394531 12.38960938 14.50789063 13.10546875 14.76953125 C17.49037025 16.6335582 21.47304613 19.1822075 25.55078125 21.63671875 C31.94497314 24.16398146 38.81084217 21.67846443 45.22924805 19.89868164 C46.00932724 19.68716965 46.78940643 19.47565765 47.59312439 19.25773621 C49.27424915 18.80123012 50.95471008 18.34227359 52.63455772 17.88109016 C55.30472204 17.14835548 57.97674925 16.42280793 60.64936829 15.69908142 C67.28893244 13.8997657 73.92566099 12.09009743 80.56158447 10.27740479 C86.17238683 8.7447719 91.7846672 7.21780907 97.39917946 5.69882011 C100.01104785 4.98980457 102.62058366 4.27263058 105.23014832 3.55519104 C129.20332918 -2.97112446 152.25937991 -4.69697722 175 7 C178.597578 9.07218449 182.11799964 11.27029849 185.64868164 13.45385742 C191.49750891 16.95941096 197.02110815 18.70601794 203.6328125 20.22265625 C215.87788102 23.04953402 226.69387968 29.63189822 234 40 C238.13253227 47.00396315 238.32783703 54.75188222 236.34375 62.59375 C235.40408471 64.89430986 234.32567683 66.89870329 233 69 C232.30583984 70.10408203 232.30583984 70.10408203 231.59765625 71.23046875 C215.80428875 93.66554581 184.72012544 98.65630728 159.9765625 105.21875 C157.77801998 105.80464705 155.57956588 106.39087598 153.38119507 106.97741699 C147.63184455 108.51057713 141.88146342 110.03983319 136.13079834 111.5680542 C126.93784804 114.01181468 117.7465668 116.46184661 108.55515671 118.91139221 C104.37288581 120.02525503 100.189927 121.13652323 96.00694752 122.24772167 C93.13671755 123.0130236 90.26878841 123.78651848 87.4009552 124.56074524 C83.85026807 125.51679479 80.29250634 126.42798654 76.72148132 127.30485535 C75.89578077 127.5149826 75.07008022 127.72510986 74.21935844 127.94160461 C72.69559333 128.32925395 71.16798647 128.70226649 69.63614082 129.05664062 C64.60681762 130.36387745 62.22041812 132.3160209 59.19140625 136.48828125 C57.92494082 138.73187732 56.71735205 141.00946401 55.5625 143.3125 C54.88551747 144.54845818 54.20223266 145.78098203 53.51318359 147.01025391 C52.05872182 149.61943534 50.63442711 152.24199359 49.22998047 154.87841797 C45.78706313 161.2989832 42.05976518 167.55392303 38.34005737 173.81674194 C37.16532007 175.80669943 36.00967777 177.80663678 34.85766602 179.80981445 C16.38693267 211.60523764 -8.83579205 226.48713046 -42.22045898 239.77612305 C-45.46427868 241.07320782 -48.69562895 242.39864867 -51.92773438 243.72460938 C-54.0123169 244.55905237 -56.09758016 245.39179722 -58.18359375 246.22265625 C-59.13689072 246.61832291 -60.09018768 247.01398956 -61.07237244 247.42164612 C-66.92836053 249.70719391 -71.83754695 250.81115736 -78 249 C-81.70849984 246.45040636 -82.76823221 244.69530338 -84.1875 240.4375 C-84.82511123 231.14334041 -76.13999855 220.59540642 -71.5625 212.875 C-70.32878659 210.77772039 -69.09573744 208.68004991 -67.86328125 206.58203125 C-67.22986816 205.50518066 -66.59645508 204.42833008 -65.94384766 203.31884766 C-62.6825788 197.75068779 -59.46775125 192.15588227 -56.25 186.5625 C-50.55617757 176.67477737 -44.81192792 166.8187394 -39 157 C-39.92220337 157.19577637 -39.92220337 157.19577637 -40.86303711 157.39550781 C-66.81310761 162.82664142 -92.37003644 166.35352672 -118.875 166.4375 C-119.69446106 166.4436734 -120.51392212 166.4498468 -121.35821533 166.45620728 C-137.32590795 166.53395831 -152.95830137 164.81479152 -168.1875 159.8125 C-169.05568359 159.53986328 -169.92386719 159.26722656 -170.81835938 158.98632812 C-172.88272533 158.33622393 -174.94203332 157.6700861 -177 157 C-177.36544922 157.99580078 -177.36544922 157.99580078 -177.73828125 159.01171875 C-183.24404766 172.05169183 -190.44641008 185.31033706 -204 191 C-208.29282329 192.49315593 -212.61599196 193.80276086 -217 195 C-217.69738281 195.19335938 -218.39476562 195.38671875 -219.11328125 195.5859375 C-223.36686644 196.51943653 -227.9650182 197.13148366 -231.8828125 194.953125 C-234.03944894 193.1819743 -235.7449495 191.510101 -237 189 C-237.5688455 182.72638849 -235.84518013 177.90460905 -233.640625 172.078125 C-233.29497498 171.13749207 -232.94932495 170.19685913 -232.59320068 169.22772217 C-231.48934761 166.23112389 -230.37002311 163.24058712 -229.25 160.25 C-228.51197891 158.25559358 -227.77498957 156.26080505 -227.0390625 154.265625 C-225.6733853 150.5669191 -224.3014795 146.87065466 -222.92285156 143.17675781 C-220.91745994 137.79577487 -218.95509682 132.39942944 -217 127 C-217.75095947 126.1802771 -217.75095947 126.1802771 -218.51708984 125.34399414 C-223.12231633 120.29352479 -227.38680753 115.0384605 -231.5793457 109.64794922 C-235.16055379 105.04920681 -238.8127939 100.51409026 -242.5 96 C-247.95576909 89.31220533 -253.31523685 82.55581344 -258.62646484 75.75292969 C-260.07394757 73.90562682 -261.53010803 72.0654364 -262.98828125 70.2265625 C-263.48183105 69.60281738 -263.97538086 68.97907227 -264.48388672 68.33642578 C-265.42001531 67.1537655 -266.35771919 65.97234955 -267.29736328 64.79248047 C-275.57102748 54.31834041 -275.57102748 54.31834041 -275.5625 48.9375 C-275.58441406 48.12152344 -275.60632813 47.30554688 -275.62890625 46.46484375 C-274.70907272 42.85978192 -272.79132961 41.41148102 -270 39 C-266.88134766 37.72973633 -266.88134766 37.72973633 -263.4140625 36.83203125 C-262.15335937 36.49623047 -260.89265625 36.16042969 -259.59375 35.81445312 C-258.2709528 35.47999588 -256.94803505 35.14601509 -255.625 34.8125 C-254.30947978 34.46838351 -252.99437021 34.12269306 -251.6796875 33.77539062 C-249.2476729 33.13636638 -246.81377563 32.5044325 -244.37744141 31.88208008 C-242.00449912 31.26234316 -239.64193858 30.60213079 -237.28833008 29.91259766 C-233.77560954 28.93772577 -230.70345755 28.63212461 -227.0625 28.5625 C-225.34740234 28.50255859 -225.34740234 28.50255859 -223.59765625 28.44140625 C-215.55454063 29.69022876 -209.95944989 35.57904597 -204.3125 41.0625 C-202.90668116 42.40409777 -201.50042543 43.74523789 -200.09375 45.0859375 C-199.4028125 45.74819336 -198.711875 46.41044922 -198 47.09277344 C-195.13503224 49.82484475 -192.22775977 52.50931516 -189.3125 55.1875 C-188.26950759 56.14841182 -187.22653877 57.10934925 -186.18359375 58.0703125 C-185.12244448 59.04692786 -184.06124483 60.02348848 -183 61 C-180.62423557 63.18667164 -178.24940327 65.37435052 -175.875 67.5625 C-175.33012939 68.06354248 -174.78525879 68.56458496 -174.22387695 69.08081055 C-170.0496121 72.92773384 -170.0496121 72.92773384 -168.79920959 74.74909973 C-166.90428333 76.36230239 -166.90428333 76.36230239 -163.67478943 75.59965515 C-162.28950648 75.25486166 -160.90907101 74.89024413 -159.53295898 74.51049805 C-158.78209487 74.31804095 -158.03123075 74.12558386 -157.25761318 73.92729473 C-154.83371251 73.30152149 -152.41714631 72.65132346 -150 72 C-148.44131143 71.59306236 -146.88224124 71.18758345 -145.32278442 70.78359985 C-140.36569991 69.49238303 -135.41901008 68.16366208 -130.47265625 66.83203125 C-128.6633288 66.34673245 -126.85395595 65.86160291 -125.04454041 65.37663269 C-121.29364712 64.37067827 -117.54324634 63.36291465 -113.79321289 62.35375977 C-108.98232129 61.05925127 -104.17027391 59.76909869 -99.35787296 58.48021412 C-95.64038938 57.48413203 -91.92346916 56.48596145 -88.20672417 55.4871273 C-86.43062143 55.01005752 -84.65435286 54.53360467 -82.87791634 54.05777931 C-80.41291213 53.39715097 -77.94866955 52.73375573 -75.48461914 52.06958008 C-74.7517569 51.87374329 -74.01889465 51.67790649 -73.26382446 51.47613525 C-69.54274971 50.48309459 -69.54274971 50.48309459 -66 49 C-67.00244751 48.4423999 -67.00244751 48.4423999 -68.02514648 47.87353516 C-90.79959168 35.19393069 -90.79959168 35.19393069 -101.38549805 28.90527344 C-106.82487194 25.6775849 -112.30097562 22.51671306 -117.78540039 19.36621094 C-123.19710956 16.25593682 -128.59997888 13.13051326 -134 10 C-134.79212891 9.54222168 -135.58425781 9.08444336 -136.40039062 8.61279297 C-138.27421748 7.52441041 -140.13909959 6.42278973 -142 5.3125 C-142.94875 4.75175781 -143.8975 4.19101563 -144.875 3.61328125 C-147.84379223 1.35940038 -148.77512715 -0.5383265 -149.3359375 -4.18359375 C-149.40383331 -8.10118212 -149.30607899 -10.44670337 -147.375 -13.9375 C-141.86827423 -18.71965659 -133.98652169 -18.91639763 -127.015625 -19.9453125 C-125.84602234 -20.12005096 -124.67641968 -20.29478943 -123.47137451 -20.474823 C-120.9938891 -20.84247658 -118.51594934 -21.2070797 -116.03759766 -21.56884766 C-112.30288924 -22.117234 -108.57148749 -22.68509127 -104.83984375 -23.25390625 C-63.66667838 -29.38550886 -35.3961697 -20.51727245 0 0 Z M106.4375 16.3125 C105.19387695 16.62372803 103.95025391 16.93495605 102.66894531 17.25561523 C95.49636688 19.06743357 88.38405026 20.99288287 81.31030273 23.15551758 C74.22837092 25.2934428 67.04506006 27.00761949 59.86230469 28.76977539 C54.02797882 30.21171377 48.24895332 31.74933642 42.5 33.5 C34.68989866 35.87832163 26.79091372 37.82464508 18.86328125 39.76953125 C13.02862109 41.21155753 7.24932162 42.74937814 1.5 44.5 C-5.19857676 46.53823442 -11.95013564 48.26977094 -18.75 49.9375 C-26.38191994 51.80948036 -33.95758777 53.79460788 -41.5 56 C-50.06130362 58.50331471 -58.67752657 60.69579982 -67.33984375 62.8203125 C-73.78289712 64.41232181 -80.14146067 66.17286008 -86.48925781 68.10571289 C-93.64015296 70.25252037 -100.88723104 71.99101434 -108.13671875 73.76953125 C-114.63994624 75.3767928 -121.05932506 77.14750737 -127.46630859 79.09887695 C-134.81681648 81.30544663 -142.26436705 83.11869041 -149.71679688 84.9453125 C-151.17569336 85.30302734 -151.17569336 85.30302734 -152.6640625 85.66796875 C-153.58993164 85.89403809 -154.51580078 86.12010742 -155.46972656 86.35302734 C-157.61710009 86.90209526 -159.72101454 87.5158094 -161.8359375 88.17578125 C-165.20199998 89.05261975 -167.55185022 89.52342087 -171 89 C-173.24215469 87.35233316 -175.00585451 85.83097735 -176.9375 83.875 C-178.08048421 82.76927798 -179.22372377 81.66381987 -180.3671875 80.55859375 C-180.95983398 79.97577637 -181.55248047 79.39295898 -182.16308594 78.79248047 C-185.24453941 75.78556508 -188.40774023 72.86706418 -191.5625 69.9375 C-192.82960244 68.75409399 -194.09653146 67.57050224 -195.36328125 66.38671875 C-199.60202914 62.43375423 -203.86210673 58.50562425 -208.16015625 54.6171875 C-210.11254388 52.81787565 -212.00194336 51.01278194 -213.87109375 49.1328125 C-214.80050781 48.22273438 -215.72992188 47.31265625 -216.6875 46.375 C-217.49574219 45.55773437 -218.30398437 44.74046875 -219.13671875 43.8984375 C-223.58728002 40.94758787 -227.95131159 40.53039846 -233.19995117 41.33886719 C-235.41827826 41.86956025 -237.57512373 42.50063392 -239.75 43.1875 C-240.52134277 43.41655029 -241.29268555 43.64560059 -242.08740234 43.8815918 C-244.39691715 44.57148103 -246.69854586 45.28374649 -249 46 C-250.35122201 46.40997807 -251.70276403 46.81890351 -253.0546875 47.2265625 C-256.04179315 48.13511323 -259.02313268 49.05855256 -262 50 C-254.17546125 60.50135463 -246.18335368 70.83542322 -237.8972168 80.9753418 C-234.29900347 85.38374885 -230.75321135 89.82829032 -227.25 94.3125 C-223.99881327 98.47187525 -220.71954981 102.60228864 -217.375 106.6875 C-216.66214844 107.56148438 -215.94929688 108.43546875 -215.21484375 109.3359375 C-213.65032635 111.21777324 -212.05606909 113.07507246 -210.44140625 114.9140625 C-209.61511719 115.87054688 -208.78882813 116.82703125 -207.9375 117.8125 C-207.18339844 118.66457031 -206.42929688 119.51664062 -205.65234375 120.39453125 C-203.557981 123.69698977 -203.65679502 125.10866528 -204 129 C-204.85688971 132.05852995 -205.98761027 134.9914861 -207.140625 137.94921875 C-207.46407898 138.80248245 -207.78753296 139.65574615 -208.12078857 140.53486633 C-209.15459886 143.25604816 -210.20191521 145.97178835 -211.25 148.6875 C-211.93972914 150.4937869 -212.62854033 152.3004246 -213.31640625 154.10742188 C-214.63011334 157.5559623 -215.94585727 161.00371078 -217.26367188 164.45068359 C-219.38781074 170.0111387 -219.38781074 170.0111387 -221.484375 175.58203125 C-221.78569336 176.38487549 -222.08701172 177.18771973 -222.39746094 178.01489258 C-223.14522252 180.13268963 -223.14522252 180.13268963 -223 183 C-218.15434598 182.06213148 -213.4695696 180.95908151 -208.8125 179.3125 C-208.03519531 179.04050781 -207.25789063 178.76851562 -206.45703125 178.48828125 C-198.89622273 173.90852283 -195.0022093 165.20663975 -190.8125 157.75 C-189.82492957 156.01324243 -188.83735438 154.2764874 -187.84899902 152.54017639 C-186.86128276 150.80319318 -185.87667656 149.06444267 -184.89208984 147.32568359 C-181.72297689 141.75540532 -178.48313315 136.22619811 -175.23754883 130.70019531 C-174.6133606 129.62850098 -174.6133606 129.62850098 -173.9765625 128.53515625 C-173.61643066 127.920354 -173.25629883 127.30555176 -172.88525391 126.67211914 C-171.85311545 124.83335569 -171.85311545 124.83335569 -171 122 C-171.845625 122.2165625 -172.69125 122.433125 -173.5625 122.65625 C-179.8422523 124.19764375 -185.52769147 125.49786989 -192 125 C-193 124 -193 124 -193.0625 120.4375 C-193.041875 119.303125 -193.02125 118.16875 -193 117 C-184.71514981 112.95391037 -173.28089755 108.99331945 -164 111 C-160.9375 113 -160.9375 113 -159 116 C-158.01600478 123.49159387 -160.71700851 128.04522801 -164.5 134.375 C-165.53452651 136.15174209 -166.56594501 137.93029872 -167.59375 139.7109375 C-168.05458984 140.48743652 -168.51542969 141.26393555 -168.99023438 142.06396484 C-170.15414791 143.93162576 -170.15414791 143.93162576 -170 146 C-162.66217756 149.45309291 -156.74381954 147.56227234 -149.375 145.3125 C-142.28307672 143.21265679 -135.1877304 141.24428179 -128 139.5 C-121.11737054 137.82106171 -114.30225491 135.97938585 -107.5 134 C-99.87849543 131.78222098 -92.23016606 129.77665471 -84.51953125 127.89453125 C-78.46935161 126.40335668 -72.48273888 124.74091515 -66.5 123 C-59.69768331 121.02059618 -52.88234592 119.18022579 -46 117.5 C-38.83154675 115.74753679 -31.71964621 113.84378837 -24.625 111.8125 C-23.75101563 111.56242187 -22.87703125 111.31234375 -21.9765625 111.0546875 C-20.3595789 110.58727818 -18.74450418 110.11319124 -17.13183594 109.63110352 C-15.28143977 109.08331674 -13.41888309 108.57693471 -11.5546875 108.078125 C-8.52994945 106.80163004 -7.89504014 105.84911787 -6.5 102.9375 C-4.35702094 99.12852754 -4.35702094 99.12852754 -0.875 97.875 C2 98 2 98 5 100 C5.59970926 104.65273417 4.61457749 107.39364167 2.24609375 111.359375 C1.34697266 112.88884766 1.34697266 112.88884766 0.4296875 114.44921875 C-0.22773438 115.53847656 -0.88515625 116.62773437 -1.5625 117.75 C-2.24747417 118.90673576 -2.93104385 120.06430424 -3.61328125 121.22265625 C-5.03120342 123.62761083 -6.45509179 126.02887559 -7.88330078 128.42773438 C-11.14576589 133.91885412 -14.31810993 139.46195091 -17.5 145 C-18.74957658 147.16691089 -19.999578 149.33357685 -21.25 151.5 C-21.86875 152.5725 -22.4875 153.645 -23.125 154.75 C-25 158 -26.875 161.25 -28.75 164.5 C-29.36883057 165.57266113 -29.98766113 166.64532227 -30.62524414 167.75048828 C-31.87435518 169.91557071 -33.12354129 172.08060982 -34.37280273 174.24560547 C-37.51202309 179.68615706 -40.64990563 185.12747216 -43.78515625 190.5703125 C-45.04426459 192.75521193 -46.30337914 194.94010779 -47.5625 197.125 C-48.17295166 198.18525391 -48.78340332 199.24550781 -49.41235352 200.33789062 C-52.60282634 205.87215172 -55.81287582 211.39409569 -59.0546875 216.8984375 C-59.70622803 218.00687012 -60.35776855 219.11530273 -61.02905273 220.25732422 C-62.2773778 222.37837494 -63.52934949 224.49728476 -64.78540039 226.61376953 C-65.3396167 227.55591309 -65.89383301 228.49805664 -66.46484375 229.46875 C-66.955896 230.29826172 -67.44694824 231.12777344 -67.95288086 231.98242188 C-69.15355086 233.91700664 -69.15355086 233.91700664 -69 236 C-64.49899546 234.54287756 -60.08695845 232.90741479 -55.6875 231.171875 C-54.99672363 230.90038635 -54.30594727 230.62889771 -53.59423828 230.34918213 C-52.13494231 229.7750834 -50.6759633 229.20017842 -49.21728516 228.62451172 C-47.03523287 227.76389607 -44.85168323 226.90716894 -42.66796875 226.05078125 C-35.85689025 223.37251306 -29.06312647 220.6549083 -22.3203125 217.80859375 C-21.24539551 217.35540771 -20.17047852 216.90222168 -19.06298828 216.43530273 C0.21211125 207.40307651 13.31747924 191.17031928 23.75 173.17333984 C25.39398696 170.33759753 27.05547488 167.51224228 28.71609497 164.68621826 C29.57000479 163.23296526 30.42309233 161.7792288 31.27536011 160.32501221 C35.27652146 153.50450696 39.37787762 146.74786121 43.5 140 C49.27779487 130.52498867 54.98344162 121.01009532 60.63833618 111.46121216 C61.85913146 109.40176972 63.0827486 107.34403262 64.30737305 105.28686523 C67.72117771 99.549524 71.12169276 93.80878907 74.43359375 88.01171875 C74.93068848 87.15723145 75.4277832 86.30274414 75.93994141 85.42236328 C76.81923034 83.9105869 77.68368135 82.3900225 78.52880859 80.85888672 C80.46045458 77.57697989 81.49277272 76.16305957 85.18359375 74.9765625 C88 75 88 75 89.75 76.3125 C90.1625 76.869375 90.575 77.42625 91 78 C91.66 78.66 92.32 79.32 93 80 C95.59531358 79.71399804 95.59531358 79.71399804 98.58203125 78.875 C99.73123047 78.58351074 100.88042969 78.29202148 102.06445312 77.99169922 C103.30130859 77.66443848 104.53816406 77.33717773 105.8125 77 C107.07900391 76.67402832 108.34550781 76.34805664 109.65039062 76.01220703 C117.98699598 73.84809835 126.27939663 71.54691476 134.54614258 69.13085938 C140.33328153 67.44642968 146.14499205 65.92954482 152 64.5 C158.98380524 62.79389012 165.90555949 60.93232485 172.8125 58.9375 C174.1267395 58.55924072 174.1267395 58.55924072 175.4675293 58.17333984 C178.72924965 57.23370416 181.99083559 56.29368261 185.25 55.34521484 C199.17325286 51.31732529 199.17325286 51.31732529 206 52 C207 53 207 53 207.0625 56.5625 C207.041875 57.696875 207.02125 58.83125 207 60 C199.93681267 63.06055314 192.92301691 65.18247596 185.4375 66.9375 C178.40506372 68.63764943 171.41941805 70.38418735 164.5 72.5 C156.69023642 74.87930489 148.79084209 76.82466265 140.86328125 78.76953125 C134.36005376 80.3767928 127.94067494 82.14750737 121.53369141 84.09887695 C114.18318352 86.30544663 106.73563295 88.11869041 99.28320312 89.9453125 C97.36216134 90.41634329 95.4437442 90.89825223 93.52856445 91.39257812 C91 92 91 92 87.19140625 92.54296875 C82.05754284 94.88682561 80.2032096 99.30744446 77.5625 104.125 C77.02173828 105.06988281 76.48097656 106.01476562 75.92382812 106.98828125 C74.59587084 109.31514447 73.28926592 111.65154667 72 114 C75.71769918 115.23923306 77.19654573 114.59919052 80.93359375 113.5234375 C82.12984375 113.18489746 83.32609375 112.84635742 84.55859375 112.49755859 C85.1913623 112.31441101 85.82413086 112.13126343 86.47607422 111.94256592 C89.7800571 110.98651237 93.09157668 110.05723256 96.40234375 109.125 C97.06015839 108.93900238 97.71797302 108.75300476 98.39572144 108.56137085 C103.73894369 107.05637787 109.10544948 105.6817476 114.5 104.375 C122.0200443 102.54239707 129.44675 100.46458283 136.8762207 98.29589844 C143.44179909 96.39814426 150.04634274 94.73538843 156.6875 93.125 C193.23222783 85.54793192 193.23222783 85.54793192 221.6484375 63.484375 C224.03951336 59.07211346 226.04061964 55.08747381 225 50 C219.93066822 40.26688298 210.93560446 35.74111587 201 32 C197.60504389 31.08014791 194.2304137 30.30648274 190.77734375 29.640625 C188 29 188 29 186.08837891 27.94580078 C180.19880749 25.27848728 171.95899927 28.64565834 166.0625 30.375 C165.27762207 30.59760498 164.49274414 30.82020996 163.68408203 31.04956055 C159.55393849 32.22758721 155.46088898 33.48854527 151.375 34.8125 C147.07052561 36.11575782 143.48779461 36.48083514 139 36 C136.70986347 32.5647952 136.82157027 31.014669 137 27 C138.00417969 26.75765625 139.00835937 26.5153125 140.04296875 26.265625 C148.79992619 24.12799836 157.41607221 21.76331922 166 19 C166 18.34 166 17.68 166 17 C163.79388434 16.18101734 161.5854166 15.36972457 159.375 14.5625 C158.14523437 14.11003906 156.91546875 13.65757812 155.6484375 13.19140625 C149.81961723 11.28799064 144.35131619 10.8183893 138.25 10.8125 C136.27773438 10.79123047 136.27773438 10.79123047 134.265625 10.76953125 C124.84214656 11.05022124 115.52518502 14.03069814 106.4375 16.3125 Z " fill="#090909" transform="translate(275,144)"/>
<path d="M0 0 C1.08800903 0.63168091 1.08800903 0.63168091 2.19799805 1.27612305 C3.49956989 2.03986821 4.79246403 2.81872216 6.07348633 3.61645508 C10.22561317 6.0877775 13.30884904 6.67962217 18.10546875 6.15625 C19.09546875 5.49625 20.08546875 4.83625 21.10546875 4.15625 C27.37546875 7.78625 33.64546875 11.41625 40.10546875 15.15625 C36.81935212 17.34699442 33.66394418 18.33298448 29.91796875 19.40625 C29.18255859 19.62023437 28.44714844 19.83421875 27.68945312 20.0546875 C20.17453484 22.20357128 12.58825604 24.05703731 4.99804688 25.91821289 C-1.07690597 27.4180998 -7.09253268 29.03327693 -13.08203125 30.84375 C-18.05853146 32.33841875 -23.03866085 33.77608687 -28.08203125 35.03125 C-29.06558594 35.27617187 -30.04914063 35.52109375 -31.0625 35.7734375 C-36.32853185 36.48525974 -40.32416918 35.22253969 -44.81640625 32.5234375 C-45.74565918 31.97244385 -46.67491211 31.4214502 -47.63232422 30.85375977 C-48.62635254 30.25233154 -49.62038086 29.65090332 -50.64453125 29.03125 C-52.80813246 27.74531731 -54.97221127 26.4601879 -57.13671875 25.17578125 C-58.25272461 24.5101416 -59.36873047 23.84450195 -60.51855469 23.15869141 C-65.90706405 19.96252755 -71.33811785 16.84125629 -76.76953125 13.71875 C-78.93105101 12.4727628 -81.09250885 11.22666818 -83.25390625 9.98046875 C-87.24805659 7.67949084 -91.24328978 5.38041038 -95.23959351 3.08317566 C-97.01954465 2.05975745 -98.79913794 1.03571987 -100.57861328 0.01147461 C-102.80802462 -1.27153627 -105.03812501 -2.55335088 -107.26904297 -3.83374023 C-112.88081724 -7.06436971 -118.47590879 -10.29630652 -123.89453125 -13.84375 C-123.89453125 -14.17375 -123.89453125 -14.50375 -123.89453125 -14.84375 C-122.89188232 -14.98474121 -121.8892334 -15.12573242 -120.85620117 -15.27099609 C-117.08554129 -15.80182089 -113.31529845 -16.33556022 -109.54516602 -16.87011719 C-107.92288007 -17.09973601 -106.30048656 -17.32859644 -104.67797852 -17.55664062 C-102.32668724 -17.88725697 -99.97574561 -18.22021428 -97.625 -18.5546875 C-96.85623535 -18.66379456 -96.0874707 -18.77290161 -95.29541016 -18.88531494 C-91.19147696 -19.47780756 -87.12930861 -20.16113641 -83.0625 -20.9765625 C-51.61538763 -26.86445585 -26.52314326 -15.50634734 0 0 Z " fill="#E7E7E7" transform="translate(264.89453125,152.84375)"/>
<path d="M0 0 C-1.29108191 3.39002721 -2.75781541 6.52160831 -4.546875 9.67578125 C-5.05452393 10.57321045 -5.56217285 11.47063965 -6.08520508 12.39526367 C-6.6345874 13.35795166 -7.18396973 14.32063965 -7.75 15.3125 C-8.32709717 16.32868408 -8.90419434 17.34486816 -9.4987793 18.3918457 C-14.12525525 26.51704339 -18.82982144 34.5956416 -23.55566406 42.66333008 C-28.08986241 50.41247198 -32.5553912 58.19932064 -37 66 C-42.02412074 74.81415431 -47.07524353 83.61154102 -52.1875 92.375 C-52.74969238 93.34018555 -53.31188477 94.30537109 -53.89111328 95.29980469 C-56.8126005 100.30252465 -59.76620607 105.28340483 -62.76171875 110.2421875 C-63.36798096 111.25104004 -63.97424316 112.25989258 -64.59887695 113.29931641 C-65.75516297 115.22026113 -66.91870748 117.13686142 -68.09057617 119.04833984 C-68.60467041 119.90379395 -69.11876465 120.75924805 -69.6484375 121.640625 C-70.10395996 122.38860352 -70.55948242 123.13658203 -71.02880859 123.90722656 C-72.28063309 126.22019868 -72.28063309 126.22019868 -72 130 C-76.27041358 131.64692393 -80.54140166 133.29235282 -84.8125 134.9375 C-86.02744141 135.40607422 -87.24238281 135.87464844 -88.49414062 136.35742188 C-89.65751953 136.80537109 -90.82089844 137.25332031 -92.01953125 137.71484375 C-93.09307861 138.12855225 -94.16662598 138.54226074 -95.27270508 138.96850586 C-97.16736092 139.68508637 -99.07831127 140.35943709 -101 141 C-99.34587201 136.46874514 -97.10294229 132.38138882 -94.75 128.1875 C-94.31381348 127.40616699 -93.87762695 126.62483398 -93.42822266 125.81982422 C-89.24084956 118.35765465 -84.92300108 110.97276297 -80.59667969 103.59057617 C-76.01042201 95.75745932 -71.4927339 87.88692251 -67 80 C-61.4692562 70.29396168 -55.88522162 60.62099137 -50.24291992 50.97924805 C-45.08537358 42.16212734 -39.97959604 33.31571537 -34.88452148 24.46240234 C-34.28969971 23.42937988 -33.69487793 22.39635742 -33.08203125 21.33203125 C-32.55843018 20.42171143 -32.0348291 19.5113916 -31.49536133 18.57348633 C-30.49446421 16.85096281 -29.45169774 15.15213107 -28.36987305 13.47924805 C-26.96714957 10.94054605 -26.40785614 8.85499297 -26 6 C-22.04262161 4.99619455 -18.08394668 3.99760064 -14.125 3 C-12.99707031 2.71382812 -11.86914062 2.42765625 -10.70703125 2.1328125 C-9.63066406 1.86210937 -8.55429687 1.59140625 -7.4453125 1.3125 C-6.45031738 1.06113281 -5.45532227 0.80976563 -4.43017578 0.55078125 C-2 0 -2 0 0 0 Z " fill="#DCDCDC" transform="translate(307,239)"/>
<path d="M0 0 C-0.27761565 8.74489312 -2.9341302 13.99284312 -9.1640625 20.1328125 C-23.32268457 32.26218581 -42.33942766 36.45742488 -60.0324707 40.76953125 C-65.90503735 42.20511912 -71.71800746 43.73559228 -77.5 45.5 C-85.28706653 47.86927064 -93.15999781 49.82335623 -101.06201172 51.76953125 C-107.10814347 53.26358567 -113.12902292 54.81584386 -119.125 56.5 C-119.82302734 56.6954541 -120.52105469 56.8909082 -121.24023438 57.09228516 C-124.44800564 57.99346748 -127.65382363 58.90122765 -130.85791016 59.81542969 C-133.88234832 60.6762201 -136.90970717 61.52609533 -139.9375 62.375 C-141.36956787 62.78782227 -141.36956787 62.78782227 -142.83056641 63.20898438 C-144.16547119 63.58120117 -144.16547119 63.58120117 -145.52734375 63.9609375 C-146.31874756 64.18571777 -147.11015137 64.41049805 -147.92553711 64.64208984 C-150 65 -150 65 -153 64 C-149.97133403 55.50954674 -146.12974394 46.56410656 -137.72753906 42.36425781 C-129.92140616 39.69194385 -121.86160695 38.19068032 -113.75585938 36.72509766 C-108.66584279 35.74243065 -103.76473716 34.32783981 -98.8125 32.8125 C-91.42068533 30.64270263 -83.99119083 28.71858014 -76.50805664 26.89160156 C-69.67401733 25.20735796 -62.9241059 23.28404504 -56.16967773 21.30737305 C-48.17015926 18.99131207 -40.10030208 16.99501304 -31.99316406 15.09204102 C-24.64525359 13.41041398 -24.64525359 13.41041398 -18 10 C-17.03093173 7.41585574 -17.03093173 7.41585574 -17 5 C-14.35469573 4.16495468 -11.7087976 3.33188625 -9.0625 2.5 C-8.30775391 2.26152344 -7.55300781 2.02304688 -6.77539062 1.77734375 C-1.11328125 0 -1.11328125 0 0 0 Z " fill="#318AC6" transform="translate(500,194)"/>
<path d="M0 0 C0 0.66 0 1.32 0 2 C0.84046875 2.24363281 1.6809375 2.48726562 2.546875 2.73828125 C6.40724141 4.14879975 9.75814098 6.05985465 13.25 8.1875 C14.76618915 9.09498405 16.28316888 10.00114806 17.80078125 10.90625 C19.04335693 11.64875 19.04335693 11.64875 20.31103516 12.40625 C25.32667584 15.37902124 30.38407986 18.27957759 35.4375 21.1875 C37.66280758 22.46866809 39.88806724 23.7499194 42.11328125 25.03125 C43.23943848 25.67964844 44.3655957 26.32804687 45.52587891 26.99609375 C48.47905536 28.69811888 51.42857616 30.40637653 54.37678528 32.11698914 C56.15059807 33.14617138 57.92495565 34.17440824 59.69946289 35.20239258 C61.92496506 36.49207672 64.14946996 37.78348384 66.37280273 39.0769043 C71.83739328 42.24015754 77.31435266 45.25261885 83 48 C78.70637632 50.27776676 74.30053932 51.43665068 69.625 52.6875 C68.78710938 52.92533203 67.94921875 53.16316406 67.0859375 53.40820312 C66.26609375 53.62798828 65.44625 53.84777344 64.6015625 54.07421875 C63.86244629 54.27619873 63.12333008 54.47817871 62.36181641 54.6862793 C57.27719028 55.36167154 53.38700941 53.95612463 49.078125 51.3671875 C48.14887207 50.81619385 47.21961914 50.2652002 46.26220703 49.69750977 C45.26817871 49.09608154 44.27415039 48.49465332 43.25 47.875 C41.08639879 46.58906731 38.92231998 45.3039379 36.7578125 44.01953125 C35.64180664 43.3538916 34.52580078 42.68825195 33.37597656 42.00244141 C27.9874672 38.80627755 22.5564134 35.68500629 17.125 32.5625 C14.96348024 31.3165128 12.8020224 30.07041818 10.640625 28.82421875 C6.64647466 26.52324084 2.65124147 24.22416038 -1.34506226 21.92692566 C-3.1250134 20.90350745 -4.90460669 19.87946987 -6.68408203 18.85522461 C-8.91349337 17.57221373 -11.14359376 16.29039912 -13.37451172 15.01000977 C-18.98628599 11.77938029 -24.58137754 8.54744348 -30 5 C-30 4.67 -30 4.34 -30 4 C-25.75076277 3.32840975 -21.50049499 2.66357939 -17.25 2 C-16.0434375 1.80921875 -14.836875 1.6184375 -13.59375 1.421875 C-12.43359375 1.24140625 -11.2734375 1.0609375 -10.078125 0.875 C-9.00981445 0.70742187 -7.94150391 0.53984375 -6.84082031 0.3671875 C-4 0 -4 0 0 0 Z " fill="#D2D2D2" transform="translate(171,134)"/>
<path d="M0 0 C0.33 0 0.66 0 1 0 C1.66 1.98 2.32 3.96 3 6 C10.34918342 6.43230491 16.90215087 4.81774185 24 3 C22.6706022 6.52866791 21.10907731 9.71562007 19.19921875 12.96484375 C18.36100586 14.39703247 18.36100586 14.39703247 17.50585938 15.8581543 C16.60577148 17.38243042 16.60577148 17.38243042 15.6875 18.9375 C14.4205724 21.08854136 13.15364533 23.23958304 11.88671875 25.390625 C11.24138184 26.48439453 10.59604492 27.57816406 9.93115234 28.70507812 C8.06416359 31.89052443 6.22524706 35.09047388 4.39453125 38.296875 C3.53758667 39.78392944 3.53758667 39.78392944 2.66333008 41.30102539 C1.58021338 43.18062157 0.50538142 45.06502412 -0.55981445 46.95483398 C-5.66431106 55.74651043 -11.26184903 59.93286584 -21 63 C-23.36196894 63.50343921 -25.58866648 63.79031882 -28 64 C-26.65361928 57.17394087 -24.63851902 50.93069807 -22.12109375 44.453125 C-21.74896255 43.47889587 -21.37683136 42.50466675 -20.99342346 41.50091553 C-19.81400668 38.41498044 -18.62645834 35.33227016 -17.4375 32.25 C-16.24579262 29.15314942 -15.05596514 26.05562311 -13.87086487 22.95623779 C-13.1359255 21.034805 -12.39710629 19.11485052 -11.65391541 17.19659424 C-11.32009354 16.32508728 -10.98627167 15.45358032 -10.64233398 14.55566406 C-10.34858383 13.7944928 -10.05483368 13.03332153 -9.75218201 12.24908447 C-8.95075164 9.85274347 -8.44573569 7.48500086 -8 5 C-5.36 4.67 -2.72 4.34 0 4 C0 2.68 0 1.36 0 0 Z " fill="#408DEB" transform="translate(80,263)"/>
<path d="M0 0 C2.86584751 2.29032896 4.96724678 5.11115145 7.15625 8.0234375 C8.1428973 9.30754673 9.12987784 10.59139997 10.1171875 11.875 C10.83600098 12.81714355 10.83600098 12.81714355 11.56933594 13.77832031 C13.27784525 16.0084928 15.02352966 18.20689682 16.78125 20.3984375 C17.41160156 21.18476563 18.04195312 21.97109375 18.69140625 22.78125 C20.42361602 24.92589067 22.1608639 27.06602695 23.90234375 29.203125 C24.44165527 29.86505859 24.9809668 30.52699219 25.53662109 31.20898438 C26.66035471 32.58812682 27.78437939 33.96703216 28.90869141 35.34570312 C32.54867791 39.82018206 36.11830431 44.34309676 39.65625 48.8984375 C47.85315696 59.63779483 47.85315696 59.63779483 57.90625 68.5234375 C57.2875 68.7296875 56.66875 68.9359375 56.03125 69.1484375 C53.05971355 71.07119638 52.77600341 73.18938277 51.90625 76.5234375 C48.78092541 77.47219675 47.06767326 77.96962805 43.90625 77.5234375 C40.61847822 75.05594144 38.35832946 71.79434422 35.90625 68.5234375 C34.65139682 66.92943482 33.39639044 65.33554854 32.13793945 63.74438477 C31.21991967 62.57988567 30.30579565 61.41230655 29.39526367 60.24194336 C25.65127219 55.42987873 21.79684015 50.71744431 17.90625 46.0234375 C12.24654578 39.1865148 6.71460258 32.2642544 1.26367188 25.26025391 C-0.1757611 23.41850459 -1.62569222 21.58541835 -3.078125 19.75390625 C-3.57223877 19.12959717 -4.06635254 18.50528809 -4.57543945 17.86206055 C-5.51245891 16.67864724 -6.45098 15.49642056 -7.39135742 14.31567383 C-10.15163989 10.8211239 -12.67188698 7.25456753 -15.09375 3.5234375 C-13.01664254 2.79705021 -10.93174688 2.09290342 -8.84375 1.3984375 C-7.68359375 1.00398437 -6.5234375 0.60953125 -5.328125 0.203125 C-2.09375 -0.4765625 -2.09375 -0.4765625 0 0 Z " fill="#DBDBDB" transform="translate(28.09375,190.4765625)"/>
<path d="M0 0 C-1.64503016 4.39240013 -3.64045085 8.50957136 -5.875 12.625 C-6.35453125 13.62660156 -6.35453125 13.62660156 -6.84375 14.6484375 C-8.61454573 17.8333219 -10.04356656 19.60226956 -13.45874023 21.02246094 C-16.62426277 21.84091494 -19.77845991 22.44158142 -23 23 C-24.7644043 23.36279053 -24.7644043 23.36279053 -26.56445312 23.73291016 C-56.24728568 29.82696791 -85.69331369 32.66484462 -116 32 C-115 30 -115 30 -113.01660156 29.31738281 C-111.71674316 29.0133252 -111.71674316 29.0133252 -110.390625 28.703125 C-109.41931641 28.46980469 -108.44800781 28.23648437 -107.44726562 27.99609375 C-106.39216797 27.74988281 -105.33707031 27.50367188 -104.25 27.25 C-96.279118 25.32941953 -88.36659767 23.31155541 -80.5 21 C-72.03428663 18.52451309 -63.51592785 16.35248855 -54.95019531 14.25219727 C-47.47657409 12.40548257 -40.08277241 10.3496168 -32.6940918 8.19067383 C-25.57968173 6.12625804 -18.41785644 4.30070669 -11.21777344 2.56030273 C-0.68334046 0 -0.68334046 0 0 0 Z " fill="#3088C3" transform="translate(257,266)"/>
<path d="M0 0 C-0.11509661 1.41750563 -0.24253658 2.83401169 -0.375 4.25 C-0.44460938 5.03890625 -0.51421875 5.8278125 -0.5859375 6.640625 C-1.03061678 9.17445789 -1.66452515 10.80577238 -3 13 C-4.61865234 14.06152344 -4.61865234 14.06152344 -6.5859375 14.859375 C-7.33568848 15.16593018 -8.08543945 15.47248535 -8.85791016 15.78833008 C-9.6885498 16.10568115 -10.51918945 16.42303223 -11.375 16.75 C-12.70797119 17.26759888 -12.70797119 17.26759888 -14.06787109 17.7956543 C-34.14499369 25.36107132 -55.28359188 30.17732742 -76.02832031 35.55712891 C-86.11145003 38.17517625 -96.17723129 40.84858618 -106.2265625 43.59375 C-107.32597168 43.89372391 -108.42538086 44.19369781 -109.55810547 44.50276184 C-114.94527214 45.97374536 -120.33061418 47.45103944 -125.71386719 48.9362793 C-127.67117768 49.47201155 -129.62853221 50.00758296 -131.5859375 50.54296875 C-132.92986069 50.91711914 -132.92986069 50.91711914 -134.30093384 51.29882812 C-135.12765594 51.52401123 -135.95437805 51.74919434 -136.80615234 51.98120117 C-137.52330414 52.17896652 -138.24045593 52.37673187 -138.9793396 52.58049011 C-141 53 -141 53 -145 53 C-144.34938905 51.32700041 -143.67966676 49.66140763 -143 48 C-142.77546143 47.32308105 -142.55092285 46.64616211 -142.31958008 45.94873047 C-140.32885174 43.00886116 -138.16428128 42.88373649 -134.76171875 42.0703125 C-134.13339142 41.91467331 -133.50506409 41.75903412 -132.85769653 41.59867859 C-130.80422791 41.09283258 -128.74615054 40.60927821 -126.6875 40.125 C-124.55176361 39.60333294 -122.41757151 39.07565801 -120.28343201 38.54750061 C-118.85953134 38.19537983 -117.43518176 37.84506944 -116.01039124 37.49656677 C-110.2340265 36.07922211 -104.51772087 34.49379411 -98.8125 32.8125 C-91.41794724 30.65129187 -83.99162924 28.71868718 -76.50805664 26.89160156 C-69.67401733 25.20735796 -62.9241059 23.28404504 -56.16967773 21.30737305 C-48.17015926 18.99131207 -40.10030208 16.99501304 -31.99316406 15.09204102 C-24.64525359 13.41041398 -24.64525359 13.41041398 -18 10 C-17.03093173 7.41585574 -17.03093173 7.41585574 -17 5 C-14.35469573 4.16495468 -11.7087976 3.33188625 -9.0625 2.5 C-8.30775391 2.26152344 -7.55300781 2.02304688 -6.77539062 1.77734375 C-1.11328125 0 -1.11328125 0 0 0 Z " fill="#3696D7" transform="translate(500,194)"/>
<path d="M0 0 C0.33 0 0.66 0 1 0 C1.66 1.98 2.32 3.96 3 6 C4.98 6.33 6.96 6.66 9 7 C9 7.33 9 7.66 9 8 C7.93813477 8.10707275 6.87626953 8.21414551 5.78222656 8.32446289 C3.105991 9.1039453 2.20486532 9.67627885 0.69616699 12.06027222 C-0.51033964 14.94247877 -1.53388265 17.84216954 -2.515625 20.80859375 C-2.89813416 21.88625504 -3.28064331 22.96391632 -3.67474365 24.07423401 C-4.89292026 27.52005515 -6.07287196 30.97746424 -7.25 34.4375 C-8.44792724 37.89126738 -9.65364102 41.34206688 -10.86810303 44.79005432 C-11.62162823 46.93635468 -12.36438453 49.08647222 -13.09527588 51.24058533 C-13.43282898 52.2149202 -13.77038208 53.18925507 -14.11816406 54.19311523 C-14.55615326 55.47979347 -14.55615326 55.47979347 -15.00299072 56.79246521 C-16.05152522 59.11408492 -17.03713907 60.39592238 -19 62 C-21.94720996 62.95186228 -24.95970402 63.42719061 -28 64 C-26.65361928 57.17394087 -24.63851902 50.93069807 -22.12109375 44.453125 C-21.74896255 43.47889587 -21.37683136 42.50466675 -20.99342346 41.50091553 C-19.81400668 38.41498044 -18.62645834 35.33227016 -17.4375 32.25 C-16.24579262 29.15314942 -15.05596514 26.05562311 -13.87086487 22.95623779 C-13.1359255 21.034805 -12.39710629 19.11485052 -11.65391541 17.19659424 C-11.32009354 16.32508728 -10.98627167 15.45358032 -10.64233398 14.55566406 C-10.34858383 13.7944928 -10.05483368 13.03332153 -9.75218201 12.24908447 C-8.95075164 9.85274347 -8.44573569 7.48500086 -8 5 C-5.36 4.67 -2.72 4.34 0 4 C0 2.68 0 1.36 0 0 Z " fill="#3A80D4" transform="translate(80,263)"/>
<path d="M0 0 C0.90540527 0.26478149 0.90540527 0.26478149 1.82910156 0.53491211 C17.64971636 5.28530211 17.64971636 5.28530211 34 7 C34 7.33 34 7.66 34 8 C33.16227051 8.20681396 32.32454102 8.41362793 31.46142578 8.62670898 C28.35613655 9.39451449 25.25138085 10.16443171 22.14697266 10.93579102 C20.80278215 11.26932295 19.45838176 11.60201018 18.11376953 11.93383789 C16.1820681 12.41070441 14.2511778 12.89085289 12.3203125 13.37109375 C11.15773926 13.65911865 9.99516602 13.94714355 8.79736328 14.24389648 C6.07220275 14.88125691 6.07220275 14.88125691 4 16 C1.90625 15.9140625 1.90625 15.9140625 -0.5 15.625 C-1.2940625 15.53476562 -2.088125 15.44453125 -2.90625 15.3515625 C-5 15 -5 15 -7 14 C-5.95316284 10.19331943 -4.5310298 7.08568149 -2.41796875 3.78125 C-1.96574951 3.07033203 -1.51353027 2.35941406 -1.04760742 1.62695312 C-0.70189697 1.09005859 -0.35618652 0.55316406 0 0 Z " fill="#D8D8D8" transform="translate(112,276)"/>
<path d="M0 0 C-1.25845427 3.48495029 -2.37379516 6.35888484 -5 9 C-7.77699344 9.82853147 -10.31028596 10.41304188 -13.1484375 10.88671875 C-13.95681061 11.0340596 -14.76518372 11.18140045 -15.59805298 11.33320618 C-17.31315856 11.64249917 -19.02973137 11.94374801 -20.74755859 12.23754883 C-23.33388415 12.68045888 -25.91489259 13.14737998 -28.49609375 13.61914062 C-37.65746925 15.26303921 -46.69147982 16.55789277 -56 17 C-55.505 15.515 -55.505 15.515 -55 14 C-52.953125 13.18798828 -52.953125 13.18798828 -50.25 12.5703125 C-48.76052856 12.21706909 -48.76052856 12.21706909 -47.2409668 11.85668945 C-46.17144775 11.61523193 -45.10192871 11.37377441 -44 11.125 C-41.79750948 10.60306966 -39.59568705 10.07831221 -37.39453125 9.55078125 C-36.3060791 9.29119629 -35.21762695 9.03161133 -34.09619141 8.76416016 C-29.92172564 7.73387488 -25.80283341 6.55570351 -21.6875 5.3125 C-21.00929199 5.10874756 -20.33108398 4.90499512 -19.63232422 4.69506836 C-17.75487618 4.1300676 -15.87743784 3.56503465 -14 3 C-11.87764603 2.3866029 -9.75294362 1.78121569 -7.625 1.1875 C-6.79226562 0.95417969 -5.95953125 0.72085937 -5.1015625 0.48046875 C-3 0 -3 0 0 0 Z " fill="#3594D4" transform="translate(257,266)"/>
<path d="M0 0 C1.9375 1.0625 1.9375 1.0625 3 3 C2.875 6.5625 2.875 6.5625 2 10 C-1 12 -1 12 -4.0625 11.8125 C-7 11 -7 11 -9 8 C-9.35384949 5.16920408 -9.3920891 3.63169911 -7.875 1.1875 C-5.12844028 -0.55198782 -3.18153026 -0.39769128 0 0 Z " fill="#131313" transform="translate(228,221)"/>
<path d="M0 0 C1.8125 1.125 1.8125 1.125 3 3 C3.4375 6 3.4375 6 3 9 C1.375 10.9375 1.375 10.9375 -1 12 C-4.125 11.875 -4.125 11.875 -7 11 C-9 8 -9 8 -8.8125 4.9375 C-7.47741613 0.1106583 -4.61266905 -0.57658363 0 0 Z " fill="#121212" transform="translate(298,202)"/>
<path d="M0 0 C3.5 0.25 3.5 0.25 5.5 2.25 C5.875 5.6875 5.875 5.6875 5.5 9.25 C3.8125 11.25 3.8125 11.25 1.5 12.25 C-1.69938696 12.17196617 -3.03129544 11.68745759 -5.375 9.5 C-6.5 7.25 -6.5 7.25 -6.3125 4.625 C-4.98871856 0.75548503 -4.10811517 0.2934368 0 0 Z " fill="#141414" transform="translate(330.5,192.75)"/>
<path d="M0 0 C2.9375 0.8125 2.9375 0.8125 4.9375 3.8125 C4.49305556 9.25694444 4.49305556 9.25694444 1.9375 11.8125 C-1 12.1875 -1 12.1875 -4.0625 11.8125 C-6 10.1875 -6 10.1875 -7.0625 7.8125 C-6.9375 4.6875 -6.9375 4.6875 -6.0625 1.8125 C-3.0625 -0.1875 -3.0625 -0.1875 0 0 Z " fill="#111111" transform="translate(191.0625,230.1875)"/>
<path d="M0 0 C2 3 2 3 1.75 6.625 C1.5025 7.73875 1.255 8.8525 1 10 C-1.79870027 11.39935013 -3.90498792 11.25265405 -7 11 C-8.875 9.8125 -8.875 9.8125 -10 8 C-10.42317323 5.17884512 -10.38718434 3.66049093 -8.9375 1.1875 C-5.91496844 -0.66501934 -3.45067281 -0.37643703 0 0 Z " fill="#101010" transform="translate(264,212)"/>
<path d="M0 0 C1.8125 1.125 1.8125 1.125 3 3 C3.39310741 6.14485925 3.47555213 8.13281671 1.9375 10.9375 C-1.18142449 12.64787795 -3.65557801 11.80513863 -7 11 C-8.39935013 8.20129973 -8.25265405 6.09501208 -8 3 C-5.90534242 -0.30735407 -3.75951639 -0.56392746 0 0 Z " fill="#0E0E0E" transform="translate(368,183)"/>
</svg>
